<?xml version="1.0" encoding="UTF-8" standalone="no"?>
<!-- Created with Inkscape (http://www.inkscape.org/) -->

<svg
   viewBox="0 0 60 21"
   version="1.1"
   id="svg1"
   xmlns="http://www.w3.org/2000/svg"
   xmlns:svg="http://www.w3.org/2000/svg">
  <defs
     id="defs1" />
  <g
     id="layer1">
    <g
       id="g1"
       transform="translate(-44.450022)">
      <g
         id="g7"
         style="fill:none"
         transform="matrix(1,0,0,-1,0.4459466,51.101928)">
        <path
           style="fill:none;stroke:#0d472c;stroke-width:2.11667;stroke-linecap:square;stroke-linejoin:miter;stroke-dasharray:none;stroke-opacity:1"
           d="m 0,39.999999 c 0,0 15,22.581676 30,0 14.999999,-22.581678 30.000001,0 30.000001,0"
           id="path4" />
        <path
           style="fill:none;stroke:#0d472c;stroke-width:2.11667;stroke-linecap:round;stroke-linejoin:miter;stroke-dasharray:none;stroke-opacity:1"
           d="m 60.000001,39.999999 c 0,0 15,22.581676 30,0 C 105,17.418321 120,39.999999 120,39.999999"
           id="path4-7" />
        <path
           style="fill:none;stroke:#0d472c;stroke-width:2.11667;stroke-linecap:square;stroke-linejoin:miter;stroke-dasharray:none;stroke-opacity:1"
           d="m 120,39.999999 c 0,0 15,22.581676 30,0 14.99999,-22.581678 29.99999,0 29.99999,0"
           id="path4-7-9" />
      </g>
      <path
         style="fill:#0d472c;fill-opacity:1;stroke:none;stroke-width:2.11667;stroke-linecap:round;stroke-linejoin:miter;stroke-dasharray:none;stroke-opacity:1"
         d="m 0.4459466,11.101929 c 0,0 14.9999984,-22.999999 29.9999974,0"
         id="path7" />
      <path
         style="fill:#0d472c;fill-opacity:1;stroke:#0d472c;stroke-width:1.1864;stroke-linecap:round;stroke-linejoin:miter;stroke-dasharray:none;stroke-opacity:1"
         d="M 0.4459466,10.886129 H 29.445945 V 23.88613 H 0.4459466 Z"
         id="path8" />
      <path
         style="fill:#0d472c;fill-opacity:1;stroke:none;stroke-width:2.11667;stroke-linecap:round;stroke-linejoin:miter;stroke-dasharray:none;stroke-opacity:1"
         d="m 60.445944,12.101929 c 0,0 14.999999,-22.999999 29.999998,0"
         id="path10" />
      <path
         style="fill:#0d472c;fill-opacity:1;stroke:#0d472c;stroke-width:1.17412;stroke-linecap:round;stroke-linejoin:miter;stroke-dasharray:none;stroke-opacity:1"
         d="M 60.445944,12.10193 H 90.445942 V 24.101929 H 60.445944 V 12.10193"
         id="path11" />
      <path
         style="fill:#0d472c;fill-opacity:1;stroke:#0d472c;stroke-width:1.234;stroke-linecap:round;stroke-linejoin:miter;stroke-dasharray:none;stroke-opacity:1"
         d="m 120.01716,11.661402 h 30.87153 v 12.881055 h -31.35388 z"
         id="path12" />
      <path
         style="fill:#0d472c;fill-opacity:1;stroke:none;stroke-width:2.11667;stroke-linecap:round;stroke-linejoin:miter;stroke-dasharray:none;stroke-opacity:1"
         d="m 120.44593,11.101929 c 0,0 15.00001,-22.999999 30,0"
         id="path13" />
      <path
         style="fill:#0d472c;fill-opacity:1;stroke:none;stroke-width:2.117;stroke-linecap:round;stroke-linejoin:miter;stroke-dasharray:none;stroke-opacity:1"
         d="m 31.445944,12.10193 5.000001,5.999998 6.999999,3.000002 h 2.000001 l 4,-1 3.999998,-2.000002 5,-4 2.000001,-0.999998 V 24.101929 H 29.445946 V 10.101927 Z"
         id="path14" />
      <path
         style="fill:#0d472c;fill-opacity:1;stroke:none;stroke-width:2.117;stroke-linecap:round;stroke-linejoin:miter;stroke-dasharray:none;stroke-opacity:1"
         d="m 91.575196,12.10193 5.000001,5.999998 6.999993,3.000002 h 2 l 4,-1 4,-2.000002 5,-4 2,-0.999998 V 24.101929 H 89.575198 V 10.101927 Z"
         id="path14-0" />
      <path
         style="fill:#0d472c;fill-opacity:1;stroke:none;stroke-width:2.117;stroke-linecap:round;stroke-linejoin:miter;stroke-dasharray:none;stroke-opacity:1"
         d="m 150.44047,12.656557 8,6.999999 7.00547,2.445372 9.99453,-4.445371 6.05833,-7.114935 -0.0583,12.114933 -31,-0.177929 z"
         id="path15" />
    </g>
  </g>
</svg>
